<svg width="28" height="28" viewBox="0 0 28 28" fill="none" xmlns="http://www.w3.org/2000/svg">
<g clip-path="url(#clip0_29_230)">
<path d="M27 13.462C26.8569 10.2129 25.5019 7.13528 23.2023 4.83561C20.9026 2.53594 17.825 1.18102 14.5759 1.03784" stroke="white"/>
<path d="M14.5381 27C17.7872 26.8569 20.8648 25.502 23.1644 23.2023C25.4641 20.9026 26.819 17.825 26.9622 14.5759" stroke="white"/>
<path d="M1 14.5381C1.14317 17.7872 2.49809 20.8648 4.79776 23.1645C7.09743 25.4641 10.175 26.819 13.4241 26.9622" stroke="white"/>
<path d="M13.4618 1C10.2127 1.14317 7.13511 2.49809 4.83544 4.79776C2.53577 7.09743 1.18077 10.175 1.0376 13.4241" stroke="white"/>
<path d="M11.3914 20.146L17.723 14.0031L11.3914 7.854V20.146Z" stroke="white" stroke-linejoin="bevel"/>
</g>
<defs>
<clipPath id="clip0_29_230">
<rect width="28" height="28" fill="white"/>
</clipPath>
</defs>
</svg>
