<svg width="40" height="40" viewBox="0 0 40 40" fill="none" xmlns="http://www.w3.org/2000/svg">
<path d="M22.6797 5.97128C28.9419 5.97128 34.0373 11.0668 34.0373 17.3289" stroke="black" stroke-miterlimit="10" stroke-linecap="square" stroke-linejoin="round"/>
<path d="M22.6797 10.5148C26.4372 10.5148 29.4938 13.5714 29.4938 17.3288" stroke="black" stroke-miterlimit="10" stroke-linecap="square" stroke-linejoin="round"/>
<path d="M22.6797 15.0575C23.9339 15.0575 24.9511 16.0747 24.9511 17.3289" stroke="black" stroke-miterlimit="10" stroke-linecap="square" stroke-linejoin="round"/>
<path d="M11.8629 22.6092C11.3839 21.9799 10.9299 21.3302 10.5024 20.6611C9.94067 19.7815 10.1106 18.6164 10.8482 17.8786L13.4119 15.315C13.9638 14.7638 13.9638 13.869 13.4119 13.3177L7.37851 7.28446C6.82728 6.7324 5.93255 6.7324 5.38132 7.28446L3.85442 8.81121C1.37623 11.2888 0.706448 15.0703 2.26197 18.21C5.02944 23.7971 10.7245 32.3615 21.6962 37.7417C24.8458 39.2852 28.6447 38.6305 31.1245 36.1507L32.686 34.5891C33.238 34.0379 33.238 33.1431 32.686 32.5911L26.6527 26.5586C26.1014 26.0065 25.2067 26.0065 24.6555 26.5586L22.0919 29.1222C21.3541 29.8599 20.189 30.0298 19.3092 29.468C18.3576 28.8598 17.4443 28.1978 16.5736 27.4859" stroke="black" stroke-miterlimit="10" stroke-linecap="square" stroke-linejoin="round"/>
</svg>
